<svg xmlns="http://www.w3.org/2000/svg" width="22" height="23" viewBox="0 0 22 23" fill="none">
<path d="M10.2107 18.5892V2.00318C10.2107 1.71338 10.3073 1.47373 10.5004 1.28424C10.6936 1.09475 10.9379 1 11.2334 1C11.5289 1 11.7732 1.09475 11.9664 1.28424C12.1595 1.47373 12.2561 1.71338 12.2561 2.00318V18.5892L19.9948 10.9984C20.1993 10.7978 20.4379 10.6975 20.7107 10.6975C20.9834 10.6975 21.222 10.7978 21.4266 10.9984C21.6311 11.199 21.7334 11.4331 21.7334 11.7006C21.7334 11.9682 21.6311 12.2022 21.4266 12.4029L11.9493 21.699C11.8357 21.8105 11.722 21.8885 11.6084 21.9331C11.4948 21.9777 11.3698 22 11.2334 22C11.097 22 10.972 21.9777 10.8584 21.9331C10.7448 21.8885 10.6311 21.8105 10.5175 21.699L1.04022 12.4029C0.835671 12.2022 0.733398 11.9682 0.733398 11.7006C0.733398 11.4331 0.835671 11.199 1.04022 10.9984C1.24476 10.7978 1.4834 10.6975 1.75613 10.6975C2.02885 10.6975 2.26749 10.7978 2.47203 10.9984L10.2107 18.5892Z" fill="#ffffff"/>
</svg>