<svg width="23" height="23" viewBox="0 0 23 23" fill="none" xmlns="http://www.w3.org/2000/svg">
<path d="M10.4773 4.41083L2.73864 12.0016C2.53409 12.2022 2.29545 12.3025 2.02273 12.3025C1.75 12.3025 1.51136 12.2022 1.30682 12.0016C1.10227 11.801 1 11.5669 1 11.2994C1 11.0318 1.10227 10.7978 1.30682 10.5971L10.7841 1.30096C10.8977 1.18949 11.0114 1.11146 11.125 1.06688C11.2386 1.02229 11.3636 1 11.5 1C11.6364 1 11.7614 1.02229 11.875 1.06688C11.9886 1.11146 12.1023 1.18949 12.2159 1.30096L21.6932 10.5971C21.8977 10.7978 22 11.0318 22 11.2994C22 11.5669 21.8977 11.801 21.6932 12.0016C21.4886 12.2022 21.25 12.3025 20.9773 12.3025C20.7045 12.3025 20.4659 12.2022 20.2614 12.0016L12.5227 4.41083V20.9968C12.5227 21.2866 12.4261 21.5263 12.233 21.7158C12.0398 21.9053 11.7955 22 11.5 22C11.2045 22 10.9602 21.9053 10.767 21.7158C10.5739 21.5263 10.4773 21.2866 10.4773 20.9968V4.41083Z" fill="#2DB67C"/>
</svg>
